HIERARCHY
ROOT pelvis
{
	OFFSET 0.00 0.00 0.00
	CHANNELS 6 Xposition Yposition Zposition Xrotation Yrotation Zrotation
	JOINT lfemur
	{
		OFFSET 0.00000 3.26371 0.00000
		CHANNELS 3 Xrotation Yrotation Zrotation
		JOINT ltibia
		{
			OFFSET 0.00000 0.00000 -17.39272
			CHANNELS 3 Xrotation Yrotation Zrotation
			JOINT lfoot
			{
				OFFSET 0.00000 0.00000 -17.72520
				CHANNELS 3 Xrotation Yrotation Zrotation
				JOINT ltoes
				{
					OFFSET 4.21806 0.00000 0.00000
					CHANNELS 3 Xrotation Yrotation Zrotation
				}
			}
		}
	}
	JOINT rfemur
	{
		OFFSET 0.00000 -3.26371 0.00000
		CHANNELS 3 Xrotation Yrotation Zrotation
		JOINT rtibia
		{
			OFFSET 0.00000 0.00000 -17.39272
			CHANNELS 3 Xrotation Yrotation Zrotation
			JOINT rfoot
			{
				OFFSET 0.00000 0.00000 -17.72520
				CHANNELS 3 Xrotation Yrotation Zrotation
				JOINT rtoes
				{
					OFFSET 4.21806 0.00000 0.00000
					CHANNELS 3 Xrotation Yrotation Zrotation
				}
			}
		}
	}
	JOINT thorax
	{
		OFFSET -1.96850 0.00000 6.16593
		CHANNELS 6 Xposition Yposition Zposition Xrotation Yrotation Zrotation
		JOINT head
		{
			OFFSET 0.00000 0.00000 18.21355
			CHANNELS 6 Xposition Yposition Zposition Xrotation Yrotation Zrotation
		}
		JOINT lclavicle
		{
			OFFSET 0.00000 0.00000 15.13875
			CHANNELS 3 Xrotation Yrotation Zrotation
			JOINT lhumerus
			{
				OFFSET 0.00000 7.18963 -1.52650
				CHANNELS 3 Xrotation Yrotation Zrotation
				JOINT lradius
				{
					OFFSET 0.00000 0.00000 -10.12096
					CHANNELS 3 Xrotation Yrotation Zrotation
					JOINT lhand
					{
						OFFSET 0.00000 0.00000 -10.45726
						CHANNELS 3 Xrotation Yrotation Zrotation
					}
				}
			}
		}
		JOINT rclavicle
		{
			OFFSET 0.00000 0.00000 15.13875
			CHANNELS 3 Xrotation Yrotation Zrotation
			JOINT rhumerus
			{
				OFFSET 0.00000 -7.18963 -1.52650
				CHANNELS 3 Xrotation Yrotation Zrotation
				JOINT rradius
				{
					OFFSET 0.00000 0.00000 -10.12096
					CHANNELS 3 Xrotation Yrotation Zrotation
					JOINT rhand
					{
						OFFSET 0.00000 0.00000 -10.45726
						CHANNELS 3 Xrotation Yrotation Zrotation
					}
				}
			}
		}
	}
}
MOTION
Frames: 14
Frame Time: 0.008333
 -84.0358 0.0756 29.3949 4.7556 -5.4884 45.3175 20.9405 -8.2922 30.7849 -0.0000 73.8116 0.0000 -0.0000 -22.7926 11.1338 0.0000 -39.5456 -0.0000 -48.5909 -27.8117 -55.9683 -0.0000 61.5296 0.0000 0.0000 13.7285 17.6469 0.0000 -18.8221 -0.0000 -85.7842 -1.8175 34.6595 -2.4523 4.2075 -1.6396 -88.0314 -0.0616 53.4811 7.6345 5.2070 -43.7571 -14.6515 0.0000 -7.5480 36.5805 8.8163 -39.2322 180.0000 -71.7785 -115.9133 -23.2565 20.4601 -0.0000 15.7918 -0.0000 11.1500 -53.4910 -16.7186 -40.8808 0.0000 -83.2686 34.1690 -27.1493 -4.8554 -0.0000
 -84.0432 0.0775 29.3985 4.7527 -5.5123 45.3141 20.9219 -8.2888 30.7508 -0.0000 73.7946 0.0000 -0.0000 -22.8271 11.1736 -0.0000 -39.6445 -0.0000 -48.6393 -27.8391 -55.9733 -0.0000 61.6120 0.0000 0.0000 14.2334 17.7215 0.0000 -19.3889 -0.0000 -85.7806 -1.8087 34.6613 -2.4225 4.2097 -1.4835 -88.0294 -0.0604 53.4807 7.6879 5.1612 -43.7664 -14.6508 0.0000 -7.4611 36.6227 8.5147 -39.4041 -180.0000 -71.9103 -115.8243 -23.7435 21.4672 0.0000 15.8503 -0.0000 11.0547 -53.5919 -16.6844 -40.9816 -0.0000 -83.2873 34.1642 -27.3975 -4.9599 -0.0000
 -84.0434 0.0735 29.4026 4.7524 -5.5302 45.3069 20.9300 -8.2798 30.7446 -0.0000 73.7834 0.0000 0.0000 -22.8126 11.1968 0.0000 -39.6132 -0.0000 -48.6875 -27.8728 -55.9944 -0.0000 61.6965 0.0000 0.0000 14.8454 17.7869 0.0000 -20.2094 -0.0000 -85.7821 -1.8196 34.6599 -2.4260 4.2146 -1.4985 -88.0343 -0.0666 53.4824 7.6587 5.2038 -43.8599 -14.6478 0.0000 -7.4901 36.6554 8.5093 -39.4083 -180.0000 -71.9102 -115.7429 -24.1697 21.7826 -0.0000 15.8282 -0.0000 11.0454 -53.5687 -16.6842 -40.8769 0.0000 -83.2458 34.1315 -27.4599 -5.0065 -0.0000
 -84.0434 0.0736 29.4066 4.7490 -5.5418 45.3101 20.9417 -8.2678 30.7499 -0.0000 73.7659 0.0000 -0.0000 -22.8018 11.1861 -0.0000 -39.6180 -0.0000 -48.7475 -27.8930 -56.0256 -0.0000 61.7878 0.0000 0.0000 15.3958 17.8577 0.0000 -21.0155 -0.0000 -85.7793 -1.8175 34.6610 -2.4168 4.2249 -1.4889 -88.0347 -0.0696 53.4834 7.6998 5.1962 -43.7363 -14.6484 0.0000 -7.4758 36.6480 8.5123 -39.3772 -180.0000 -71.9058 -115.7584 -24.1895 21.8916 -0.0000 15.8443 -0.0000 11.0348 -53.5770 -16.6997 -40.9109 0.0000 -83.2453 34.1293 -27.4765 -5.0545 -0.0000
 -84.0434 0.0736 29.4066 4.7490 -5.5418 45.3101 20.9417 -8.2678 30.7499 -0.0000 73.7659 0.0000 -0.0000 -22.8018 11.1861 -0.0000 -39.6180 -0.0000 -48.7475 -27.8930 -56.0256 -0.0000 61.7878 0.0000 0.0000 15.3958 17.8577 0.0000 -21.0155 -0.0000 -85.7793 -1.8175 34.6610 -2.4168 4.2249 -1.4889 -88.0347 -0.0696 53.4834 7.6998 5.1962 -43.7363 -14.6484 0.0000 -7.4758 36.6480 8.5123 -39.3772 -180.0000 -71.9058 -115.7584 -24.1895 21.8916 -0.0000 15.8443 -0.0000 11.0348 -53.5770 -16.6997 -40.9109 0.0000 -83.2453 34.1293 -27.4765 -5.0545 -0.0000
 -84.0446 0.0728 29.4067 4.7517 -5.5693 45.3192 20.9576 -8.2560 30.7364 -0.0000 73.7747 0.0000 -0.0000 -22.8002 11.1901 0.0000 -39.6224 -0.0000 -48.8899 -27.9260 -56.1239 -0.0000 61.9913 0.0000 0.0000 16.2658 18.0271 0.0000 -22.1419 -0.0000 -85.7796 -1.8198 34.6619 -2.3948 4.2463 -1.4692 -88.0415 -0.0761 53.4865 7.7358 5.2348 -43.7153 -14.6363 0.0000 -7.4649 36.6426 8.4706 -39.4139 -180.0000 -71.9275 -115.7676 -24.0070 21.8398 -0.0000 15.8548 -0.0000 11.0091 -53.5985 -16.6991 -40.9083 0.0000 -83.2403 34.1215 -27.5249 -5.0266 -0.0000
 -84.0446 0.0728 29.4067 4.7517 -5.5693 45.3192 20.9576 -8.2560 30.7364 -0.0000 73.7747 0.0000 -0.0000 -22.8002 11.1901 0.0000 -39.6224 -0.0000 -48.8899 -27.9260 -56.1239 -0.0000 61.9913 0.0000 0.0000 16.2658 18.0271 0.0000 -22.1419 -0.0000 -85.7796 -1.8198 34.6619 -2.3948 4.2463 -1.4692 -88.0415 -0.0761 53.4865 7.7358 5.2348 -43.7153 -14.6363 0.0000 -7.4649 36.6426 8.4706 -39.4139 -180.0000 -71.9275 -115.7676 -24.0070 21.8398 -0.0000 15.8548 -0.0000 11.0091 -53.5985 -16.6991 -40.9083 0.0000 -83.2403 34.1215 -27.5249 -5.0266 -0.0000
 -84.0445 0.0698 29.4109 4.7532 -5.5801 45.3272 20.9652 -8.2543 30.7309 -0.0000 73.7642 0.0000 -0.0000 -22.8003 11.1834 0.0000 -39.5830 -0.0000 -48.9416 -27.9487 -56.1441 -0.0000 62.0712 0.0000 0.0000 16.8231 18.0540 0.0000 -22.9599 -0.0000 -85.7808 -1.8237 34.6618 -2.3909 4.2524 -1.4666 -88.0431 -0.0823 53.4886 7.7613 5.2492 -43.6403 -14.6351 0.0000 -7.4713 36.6640 8.4533 -39.4250 -180.0000 -71.9536 -115.7607 -24.1832 21.8500 -0.0000 15.8591 -0.0000 11.0016 -53.6032 -16.6944 -40.9050 0.0000 -83.2295 34.1436 -27.5340 -4.9861 -0.0000
 -84.0445 0.0698 29.4109 4.7532 -5.5801 45.3272 20.9652 -8.2543 30.7309 -0.0000 73.7642 0.0000 -0.0000 -22.8003 11.1834 0.0000 -39.5830 -0.0000 -48.9416 -27.9487 -56.1441 -0.0000 62.0712 0.0000 0.0000 16.8231 18.0540 0.0000 -22.9599 -0.0000 -85.7808 -1.8237 34.6618 -2.3909 4.2524 -1.4666 -88.0431 -0.0823 53.4886 7.7613 5.2492 -43.6403 -14.6351 0.0000 -7.4713 36.6640 8.4533 -39.4250 -180.0000 -71.9536 -115.7607 -24.1832 21.8500 -0.0000 15.8591 -0.0000 11.0016 -53.6032 -16.6944 -40.9050 0.0000 -83.2295 34.1436 -27.5340 -4.9861 -0.0000
 -84.0432 0.0670 29.4116 4.7563 -5.5851 45.3352 20.9702 -8.2547 30.7218 -0.0000 73.7635 0.0000 -0.0000 -22.7855 11.1845 0.0000 -39.5993 -0.0000 -48.9757 -27.9525 -56.1761 -0.0000 62.1159 0.0000 0.0000 17.0467 18.0936 0.0000 -23.2676 -0.0000 -85.7822 -1.8278 34.6614 -2.3912 4.2595 -1.4669 -88.0457 -0.0873 53.4896 7.7861 5.2672 -43.5920 -14.6309 0.0000 -7.4708 36.6805 8.4336 -39.4462 -180.0000 -71.9533 -115.7681 -24.2273 21.8911 -0.0000 15.8608 -0.0000 10.9900 -53.6050 -16.6838 -40.8920 0.0000 -83.2355 34.1776 -27.5314 -4.9437 -0.0000
 -84.0432 0.0670 29.4116 4.7563 -5.5851 45.3352 20.9702 -8.2547 30.7218 -0.0000 73.7635 0.0000 -0.0000 -22.7855 11.1845 0.0000 -39.5993 -0.0000 -48.9757 -27.9525 -56.1761 -0.0000 62.1159 0.0000 0.0000 17.0467 18.0936 0.0000 -23.2676 -0.0000 -85.7822 -1.8278 34.6614 -2.3912 4.2595 -1.4669 -88.0457 -0.0873 53.4896 7.7861 5.2672 -43.5920 -14.6309 0.0000 -7.4708 36.6805 8.4336 -39.4462 -180.0000 -71.9533 -115.7681 -24.2273 21.8911 -0.0000 15.8608 -0.0000 10.9900 -53.6050 -16.6838 -40.8920 0.0000 -83.2355 34.1776 -27.5314 -4.9437 -0.0000
 -84.0412 0.0642 29.4107 4.7606 -5.5854 45.3439 20.9742 -8.2570 30.7147 -0.0000 73.7675 0.0000 -0.0000 -22.7782 11.1788 0.0000 -39.6121 -0.0000 -48.9906 -27.9461 -56.1980 -0.0000 62.1316 0.0000 0.0000 17.0426 18.0962 0.0000 -23.2772 -0.0000 -85.7833 -1.8320 34.6610 -2.3954 4.2635 -1.4696 -88.0486 -0.0934 53.4907 7.7881 5.2822 -43.5407 -14.6298 0.0000 -7.4715 36.7057 8.4040 -39.4737 -180.0000 -71.9490 -115.7929 -24.2955 21.9310 -0.0000 15.8609 -0.0000 10.9770 -53.6012 -16.6758 -40.8742 0.0000 -83.2464 34.1640 -27.5293 -4.9444 -0.0000
 -84.0412 0.0642 29.4107 4.7606 -5.5854 45.3439 20.9742 -8.2570 30.7147 -0.0000 73.7675 0.0000 -0.0000 -22.7782 11.1788 0.0000 -39.6121 -0.0000 -48.9906 -27.9461 -56.1980 -0.0000 62.1316 0.0000 0.0000 17.0426 18.0962 0.0000 -23.2772 -0.0000 -85.7833 -1.8320 34.6610 -2.3954 4.2635 -1.4696 -88.0486 -0.0934 53.4907 7.7881 5.2822 -43.5407 -14.6298 0.0000 -7.4715 36.7057 8.4040 -39.4737 -180.0000 -71.9490 -115.7929 -24.2955 21.9310 -0.0000 15.8609 -0.0000 10.9770 -53.6012 -16.6758 -40.8742 0.0000 -83.2464 34.1640 -27.5293 -4.9444 -0.0000
 -84.0414 0.0633 29.4108 4.7626 -5.5854 45.3456 20.9750 -8.2573 30.7147 -0.0000 73.7667 0.0000 -0.0000 -22.7761 11.1786 0.0000 -39.6020 -0.0000 -48.9913 -27.9468 -56.1972 -0.0000 62.1323 0.0000 0.0000 17.0449 18.0945 0.0000 -23.2562 -0.0000 -85.7846 -1.8342 34.6615 -2.3937 4.2614 -1.4706 -88.0496 -0.0972 53.4912 7.7853 5.2915 -43.5212 -14.6262 0.0000 -7.4623 36.7098 8.4020 -39.4800 -180.0000 -71.9354 -115.8224 -24.3970 21.9483 -0.0000 15.8633 -0.0000 10.9714 -53.5971 -16.6699 -40.8748 0.0000 -83.2466 34.1383 -27.5568 -4.9523 -0.0000
